<svg width="35.001953" height="35.001953" viewBox="0 0 35.002 35.002" fill="none" xmlns="http://www.w3.org/2000/svg" xmlns:xlink="http://www.w3.org/1999/xlink">
	<desc>
			Created with Pixso.
	</desc>
	<defs/>
	<g opacity="0.555263">
		<mask id="mask_0_2022" fill="white">
			<path id="Combined Shape" d="M17.501 16.7939L1.41406 0.707031L0.707031 1.41406L16.7939 17.501L0.707031 33.5879L1.41406 34.2949L17.501 18.208L33.5874 34.2949L34.2944 33.5879L18.208 17.501L34.2944 1.41406L33.5874 0.707031L17.501 16.7939Z" clip-rule="evenodd" fill="" fill-opacity="1.000000" fill-rule="evenodd"/>
		</mask>
		<path id="Combined Shape" d="M17.501 16.7939L1.41406 0.707031L0.707031 1.41406L16.7939 17.501L0.707031 33.5879L1.41406 34.2949L17.501 18.208L33.5874 34.2949L34.2944 33.5879L18.208 17.501L34.2944 1.41406L33.5874 0.707031L17.501 16.7939Z" clip-rule="evenodd" fill="#D8D8D8" fill-opacity="0.000000" fill-rule="evenodd" mask="url(#mask_0_2022)"/>
		<path id="Combined Shape" d="M17.1475 17.1475L1.06055 1.06055L1.41406 0.707031L1.76758 1.06055L1.06055 1.76758L0.707031 1.41406L1.06055 1.06055L17.501 17.501L1.06055 33.9414L0.707031 33.5879L1.06055 33.2344L1.76758 33.9414L1.41406 34.2949L1.06055 33.9414L17.501 17.501L33.9409 33.9414L33.5874 34.2949L33.2339 33.9414L33.9409 33.2344L34.2944 33.5879L33.9409 33.9414L17.501 17.501L33.9409 1.06055L34.2944 1.41406L33.9409 1.76758L33.2339 1.06055L33.5874 0.707031L33.9409 1.06055L17.501 17.501L17.1475 17.1475ZM17.8545 16.4404L17.501 16.7939L17.1475 16.4404L33.5874 0L35.002 1.41406L18.5615 17.8545L18.208 17.501L18.5615 17.1475L35.002 33.5879L33.5874 35.002L17.1475 18.5615L17.501 18.208L17.8545 18.5615L1.41406 35.002L0 33.5879L16.4399 17.1475L16.7939 17.501L16.4399 17.8545L0 1.41406L1.41406 0L17.8545 16.4404Z" fill="#FFFFFF" fill-opacity="1.000000" fill-rule="nonzero"/>
	</g>
</svg>
