<svg width="100.000031" height="31.815430" viewBox="0 0 100 31.8154" fill="none" xmlns="http://www.w3.org/2000/svg" xmlns:xlink="http://www.w3.org/1999/xlink">
	<desc>
			Created with Pixso.
	</desc>
	<defs>
		<linearGradient id="paint_linear_0_1816_0" x1="28.279819" y1="14.687794" x2="11.329458" y2="-3.672941" gradientUnits="userSpaceOnUse">
			<stop stop-color="#C88C61"/>
			<stop offset="1.000000" stop-color="#EBBE9C"/>
		</linearGradient>
	</defs>
	<path id="Shape" d="M40.3698 27.75C40.6432 27.75 40.8878 27.8105 41.1031 27.9326C41.3185 28.0547 41.4862 28.2246 41.6061 28.4443C41.726 28.6631 41.7859 28.9131 41.7859 29.1943C41.7859 29.4824 41.7232 29.7383 41.5977 29.9619C41.4722 30.1846 41.297 30.3574 41.0721 30.4814C40.8474 30.6055 40.5888 30.667 40.2966 30.667C39.8058 30.667 39.4254 30.4941 39.1557 30.1494C38.8859 29.8047 38.751 29.3291 38.751 28.7217C38.751 28.0889 38.8719 27.6035 39.1136 27.2666C39.3553 26.9297 39.7327 26.7012 40.2461 26.5811L41.5724 26.2773L41.6398 26.6426L40.3922 26.9287C39.9688 27.0225 39.6579 27.1885 39.4593 27.4268C39.2607 27.6641 39.1519 28.0156 39.1333 28.4805C39.2531 28.252 39.4198 28.0732 39.6334 27.9434C39.847 27.8145 40.0924 27.75 40.3696 27.75L40.3698 27.75ZM40.8615 30.1914C40.6985 30.2871 40.5139 30.335 40.3079 30.335L40.3076 30.335C40.1016 30.335 39.9161 30.2871 39.7513 30.1914C39.5865 30.0967 39.4581 29.9619 39.3663 29.79C39.2745 29.6182 39.2286 29.4229 39.2286 29.2061C39.2286 28.9883 39.2745 28.7969 39.3663 28.6328C39.4581 28.4678 39.5855 28.3389 39.7485 28.2471C39.9115 28.1553 40.098 28.1094 40.3078 28.1094C40.5177 28.1094 40.704 28.1553 40.867 28.2471C41.03 28.3389 41.1566 28.4678 41.2464 28.6328C41.3364 28.7969 41.3813 28.9883 41.3813 29.2061C41.3813 29.4229 41.3354 29.6182 41.2436 29.79C41.1518 29.9619 41.0244 30.0967 40.8615 30.1914ZM44.6466 28.7227C45.0175 28.7256 45.2994 28.8086 45.4924 28.9697C45.6853 29.1309 45.7818 29.3633 45.7818 29.666C45.7818 29.9814 45.6778 30.2227 45.4698 30.3916C45.2618 30.5596 44.9612 30.6426 44.5677 30.6387L43.3763 30.6328L43.3763 27.6768L43.7754 27.6768L43.7754 28.7109L44.6465 28.7227L44.6466 28.7227ZM45.1665 30.1689C45.026 30.2842 44.8189 30.3389 44.5454 30.335L43.7755 30.3242L43.7755 29.0088L44.5454 29.0195C44.8227 29.0234 45.0306 29.0781 45.1693 29.1826C45.3079 29.2881 45.3772 29.4492 45.3772 29.666C45.3772 29.8877 45.307 30.0547 45.1665 30.1689ZM49.817 27.6543C50.0943 27.6543 50.3444 27.7178 50.5673 27.8457C50.7902 27.9727 50.9654 28.1504 51.0928 28.3799C51.2202 28.6084 51.2839 28.8662 51.2839 29.1553C51.2839 29.4434 51.2203 29.7021 51.0928 29.9307C50.9654 30.1592 50.7903 30.3379 50.5673 30.4668C50.3444 30.5967 50.0943 30.6611 49.817 30.6611C49.5547 30.6611 49.317 30.6035 49.1033 30.4893C48.8897 30.375 48.7165 30.2168 48.5834 30.0146C48.4504 29.8125 48.3726 29.5801 48.3502 29.3174L47.6758 29.3174L47.6758 30.6328L47.2767 30.6328L47.2767 27.6768L47.6758 27.6768L47.6758 28.9521L48.3557 28.9521C48.3857 28.6982 48.4671 28.4717 48.6002 28.2754C48.7332 28.0791 48.9046 27.9258 49.1144 27.8174C49.3242 27.709 49.5584 27.6543 49.8169 27.6543L49.817 27.6543ZM50.365 30.167C50.202 30.2637 50.0193 30.3125 49.817 30.3125C49.6148 30.3125 49.4321 30.2637 49.2691 30.167C49.1061 30.0693 48.9778 29.9326 48.8841 29.7568C48.7904 29.5801 48.7436 29.3799 48.7436 29.1553C48.7436 28.9297 48.7905 28.7295 48.8841 28.5537C48.9778 28.377 49.1061 28.2412 49.2691 28.1465C49.4321 28.0508 49.6148 28.0029 49.817 28.0029C50.0193 28.0029 50.202 28.0508 50.365 28.1465C50.528 28.2412 50.6564 28.3779 50.75 28.5537C50.8436 28.7295 50.8904 28.9297 50.8904 29.1553Q50.8904 29.4863 50.7545 29.748Q50.7523 29.752 50.75 29.7568C50.6562 29.9326 50.528 30.0693 50.365 30.167ZM54.8414 28.0312L53.7231 28.0312L53.7231 30.6328L53.3239 30.6328L53.3239 28.0312L52.2056 28.0312L52.2056 27.6768L54.8414 27.6768L54.8414 28.0312ZM56.1566 27.6768L56.5557 27.6768L56.5557 30.0264L58.5283 27.6768L58.8824 27.6768L58.8824 30.6328L58.4832 30.6328L58.4832 28.2842L56.5163 30.6328L56.1566 30.6328L56.1566 27.6768ZM64.0414 29.3184L63.3672 29.3184L63.3672 30.6328L62.9681 30.6328L62.9681 27.6768L63.3672 27.6768L63.3672 28.9756L64.0471 28.9756L65.0869 27.6768L65.5196 27.6768L64.3562 29.1104L65.6039 30.6328L65.1318 30.6328L64.0414 29.3184ZM68.0824 30.6611C67.7976 30.6611 67.541 30.5967 67.3124 30.4678C67.0839 30.3379 66.904 30.1592 66.7729 29.9307C66.6418 29.7021 66.5762 29.4434 66.5762 29.1553C66.5762 28.8662 66.6418 28.6084 66.7729 28.3799C66.904 28.1514 67.0839 27.9727 67.3124 27.8457C67.541 27.7188 67.7976 27.6543 68.0824 27.6543C68.3671 27.6543 68.6239 27.7178 68.8523 27.8457C69.0809 27.9727 69.2599 28.1514 69.389 28.3799C69.5183 28.6084 69.5829 28.8662 69.5829 29.1553C69.5829 29.4434 69.5183 29.7021 69.389 29.9307C69.2597 30.1592 69.0808 30.3379 68.8523 30.4678C68.6237 30.5967 68.3671 30.6611 68.0824 30.6611ZM68.6472 30.1641C68.4805 30.2598 68.2922 30.3076 68.0824 30.3076C67.8726 30.3076 67.6843 30.2598 67.5176 30.1641C67.3508 30.0684 67.2197 29.9326 67.1242 29.7568C67.0286 29.5801 66.9808 29.3799 66.9808 29.1553C66.9808 28.9297 67.0286 28.7295 67.1242 28.5537C67.2197 28.377 67.3508 28.2412 67.5176 28.1465C67.6843 28.0508 67.8726 28.0029 68.0824 28.0029C68.2922 28.0029 68.4805 28.0508 68.6472 28.1465C68.814 28.2412 68.9441 28.3779 69.0378 28.5537C69.1314 28.7295 69.1782 28.9297 69.1782 29.1553Q69.1782 29.4863 69.0422 29.748Q69.04 29.752 69.0378 29.7568C68.9441 29.9326 68.814 30.0684 68.6472 30.1641ZM73.0562 29.1045C73.4571 29.1982 73.6575 29.4395 73.6575 29.8291C73.6575 30.0879 73.562 30.2861 73.3708 30.4248C73.1797 30.5635 72.895 30.6328 72.5166 30.6328L71.1734 30.6328L71.1734 27.6768L72.4773 27.6768C72.8145 27.6768 73.0786 27.7422 73.2697 27.874C73.4608 28.0049 73.5563 28.1924 73.5563 28.4355C73.5563 28.5967 73.5123 28.7344 73.4241 28.8486C73.3361 28.9629 73.2134 29.0479 73.056 29.1045L73.0562 29.1045ZM72.4492 28.9922L71.5613 28.9922L71.5613 27.9912L72.4492 27.9912C72.6778 27.9912 72.853 28.0332 72.9747 28.1152C73.0965 28.1973 73.1574 28.3213 73.1574 28.4863C73.1574 28.6514 73.0965 28.7764 72.9747 28.8623C72.8528 28.9492 72.6778 28.9922 72.4492 28.9922ZM73.073 30.1943C72.9457 30.2773 72.7545 30.3184 72.4998 30.3184L71.5611 30.3184L71.5611 29.29L72.5391 29.29C72.7901 29.29 72.9737 29.332 73.0899 29.416C73.2061 29.501 73.2641 29.6309 73.2641 29.8066C73.2641 29.9824 73.2005 30.1123 73.073 30.1943ZM76.5462 30.6611C76.2614 30.6611 76.0049 30.5967 75.7762 30.4678C75.5476 30.3379 75.3678 30.1592 75.2367 29.9307C75.1056 29.7021 75.04 29.4434 75.04 29.1553C75.04 28.8662 75.1056 28.6084 75.2367 28.3799C75.3678 28.1514 75.5476 27.9727 75.7762 27.8457C76.0049 27.7188 76.2614 27.6543 76.5462 27.6543C76.8309 27.6543 77.0876 27.7178 77.3161 27.8457C77.5447 27.9727 77.7237 28.1514 77.8528 28.3799C77.9821 28.6084 78.0467 28.8662 78.0467 29.1553C78.0467 29.4434 77.9821 29.7021 77.8528 29.9307C77.7235 30.1592 77.5446 30.3379 77.3161 30.4678C77.0875 30.5967 76.8309 30.6611 76.5462 30.6611ZM77.111 30.1641C76.9442 30.2598 76.756 30.3076 76.5462 30.3076C76.3364 30.3076 76.1481 30.2598 75.9814 30.1641C75.8146 30.0684 75.6835 29.9326 75.588 29.7568C75.4924 29.5801 75.4445 29.3799 75.4445 29.1553C75.4445 28.9297 75.4924 28.7295 75.588 28.5537C75.6835 28.377 75.8146 28.2412 75.9814 28.1465C76.1481 28.0508 76.3364 28.0029 76.5462 28.0029C76.756 28.0029 76.9442 28.0508 77.111 28.1465C77.2777 28.2412 77.4079 28.3779 77.5016 28.5537C77.5952 28.7295 77.642 28.9297 77.642 29.1553C77.642 29.3799 77.5952 29.5801 77.5016 29.7568C77.4079 29.9326 77.2777 30.0684 77.111 30.1641ZM81.1603 27.6543C81.4375 27.6543 81.6885 27.7168 81.9134 27.8428C82.1381 27.9688 82.3143 28.1455 82.4416 28.374C82.5691 28.6025 82.6327 28.8633 82.6327 29.1553C82.6327 29.4512 82.5691 29.7139 82.4416 29.9424C82.3143 30.1709 82.1391 30.3477 81.9162 30.4727C81.6933 30.5986 81.4413 30.6611 81.1603 30.6611C80.9205 30.6611 80.7041 30.6113 80.5112 30.5127C80.3182 30.4131 80.1599 30.2676 80.0362 30.0771L80.0362 31.7236L79.6371 31.7236L79.6371 27.6768L80.0193 27.6768L80.0193 28.2617C80.1392 28.0664 80.2975 27.917 80.4942 27.8125C80.6909 27.707 80.9129 27.6543 81.1601 27.6543L81.1603 27.6543ZM81.6941 30.1641C81.5255 30.2598 81.3382 30.3076 81.1321 30.3076C80.9223 30.3076 80.7341 30.2598 80.5673 30.1641C80.4006 30.0684 80.2695 29.9326 80.1739 29.7568C80.0785 29.5801 80.0306 29.3799 80.0306 29.1553C80.0306 28.9297 80.0784 28.7305 80.1739 28.5566C80.2695 28.3818 80.4006 28.2461 80.5673 28.1484C80.7341 28.0518 80.9223 28.0029 81.1321 28.0029C81.3382 28.0029 81.5255 28.0518 81.6941 28.1484C81.8628 28.2461 81.9948 28.3818 82.0903 28.5566C82.1859 28.7305 82.2338 28.9297 82.2338 29.1553C82.2338 29.3799 82.1859 29.5801 82.0903 29.7568C81.9948 29.9326 81.8627 30.0684 81.6941 30.1641ZM85.3021 29.3184L84.6279 29.3184L84.6279 30.6328L84.2288 30.6328L84.2288 27.6768L84.6279 27.6768L84.6279 28.9756L85.3078 28.9756L86.3476 27.6768L86.7803 27.6768L85.6169 29.1104L86.8646 30.6328L86.3925 30.6328L85.3021 29.3184ZM88.2302 27.6768L88.6293 27.6768L88.6293 30.0264L90.6019 27.6768L90.956 27.6768L90.956 30.6328L90.5569 30.6328L90.5569 28.2842L88.5899 30.6328L88.2302 30.6328L88.2302 27.6768ZM92.833 27.6768L93.2321 27.6768L93.2321 28.9863L95.0922 28.9863L95.0922 27.6768L95.4913 27.6768L95.4913 30.6328L95.0922 30.6328L95.0922 29.3291L93.2321 29.3291L93.2321 30.6328L92.833 30.6328L92.833 27.6768ZM99.4535 28.0312L97.7619 28.0312L97.7619 30.6328L97.3628 30.6328L97.3628 27.6768L99.4535 27.6768L99.4535 28.0312Z" clip-rule="evenodd" fill="#FFFFFF" fill-opacity="1.000000" fill-rule="evenodd"/>
	<mask id="mask_0_1816" fill="white">
		<path id="Shape" d="M0.854492 23.2939L11.2575 17.2881C11.2542 17.2412 11.2525 17.1934 11.2525 17.1455L11.2551 17.0488L0.854492 11.0439L0.854492 23.2939ZM0.854492 23.2939L0.85434 23.2939L0.854492 23.2939L0.854492 23.2939ZM13.5955 15.2861C13.9477 15.3682 14.2628 15.5479 14.5108 15.7949C14.6342 15.9189 14.7404 16.0596 14.8268 16.2129L25.0579 10.3057L13.5955 3.6875L13.5955 15.2861ZM15.0696 17.0557L15.0718 17.1455C15.0718 17.1914 15.0702 17.2363 15.0672 17.2803L25.4828 23.2939L25.4828 11.0439L15.0698 17.0557L15.0696 17.0557ZM14.8075 18.1143C14.7255 18.2529 14.6255 18.3809 14.5125 18.4941C14.2635 18.7432 13.9477 18.9238 13.5955 19.0059L13.5955 30.6504L25.0579 24.0322L14.8075 18.1143ZM12.7415 19.0088C12.3842 18.9277 12.0639 18.7461 11.8134 18.4961C11.7011 18.3838 11.6026 18.2568 11.5205 18.1201L1.27914 24.0322L12.7415 30.6504L12.7415 19.0088ZM11.5004 16.207C11.5853 16.0566 11.6903 15.9189 11.8116 15.7969C12.0635 15.5459 12.384 15.3633 12.7414 15.2832L12.7414 3.6875L1.27899 10.3057L11.5004 16.207ZM13.9095 16.3984C13.7187 16.208 13.454 16.0898 13.162 16.0898C12.87 16.0898 12.6053 16.208 12.4145 16.3984C12.224 16.5889 12.1062 16.8535 12.1062 17.1455C12.1062 17.4375 12.2244 17.7021 12.4145 17.8936C12.6054 18.083 12.87 18.2012 13.162 18.2012C13.454 18.2012 13.7188 18.084 13.9095 17.8936C14.0995 17.7021 14.2177 17.4375 14.2177 17.1455C14.2177 16.8535 14.0999 16.5889 13.9095 16.3984ZM26.0969 9.92188L13.4079 2.5957L13.4083 2.5957L13.4075 2.5957L13.4049 2.59375L13.4019 2.5918L13.3989 2.58984L13.3985 2.58887L13.3956 2.58691L13.3922 2.58496L13.3901 2.58398L13.3888 2.58301L13.3854 2.58105L13.3821 2.5791L13.3816 2.5791L13.379 2.57715L13.3756 2.5752L13.3726 2.57324L13.3721 2.57324L13.3687 2.57129L13.3654 2.56934L13.3631 2.56836L13.3615 2.56738L13.3581 2.56641L13.3547 2.56445L13.3539 2.56445L13.3513 2.5625L13.348 2.56055L13.3454 2.55957L13.3446 2.55957L13.3441 2.55957L13.3407 2.55762L13.3368 2.55664L13.3351 2.55566L13.3334 2.55469L13.3301 2.55371L13.3284 2.55273L13.3262 2.55176L13.3258 2.55176L13.3224 2.5498L13.3191 2.54883L13.3161 2.54785L13.3153 2.54785L13.3119 2.5459L13.308 2.54492L13.3063 2.54492L13.3041 2.54395L13.3003 2.54199L13.2969 2.54102L13.296 2.54102L13.293 2.54004L13.2891 2.53906L13.2861 2.53809L13.2852 2.53711L13.2813 2.53711L13.2774 2.53516L13.2758 2.53516L13.2735 2.53418L13.2697 2.5332L13.2657 2.5332L13.2654 2.5332L13.262 2.53223L13.2577 2.53125L13.2547 2.53027L13.254 2.53027L13.2501 2.5293L13.2462 2.52832L13.2445 2.52832L13.2423 2.52832L13.238 2.52734L13.2341 2.52637L13.2337 2.52637L13.2304 2.52637L13.2261 2.52539L13.2231 2.52539L13.2222 2.52539L13.2179 2.52441L13.2162 2.52441L13.2123 2.52344L13.2097 2.52344L13.2059 2.52344L13.2016 2.52246L13.1977 2.52246L13.1934 2.52246L13.1904 2.52148L13.1852 2.52148L13.181 2.52148L13.1561 2.52148L13.1518 2.52148L13.1466 2.52148L13.1436 2.52246L13.1393 2.52246L13.1354 2.52246L13.1312 2.52344L13.1273 2.52344L13.1247 2.52344L13.1208 2.52441L13.1191 2.52441L13.1148 2.52539L13.1139 2.52539L13.1109 2.52539L13.1067 2.52637L13.1033 2.52637L13.1029 2.52637L13.099 2.52734L13.0947 2.52832L13.0925 2.52832L13.0909 2.52832L13.0869 2.5293L13.0831 2.53027L13.0822 2.53027L13.0792 2.53125L13.0749 2.53223L13.0715 2.5332L13.0711 2.5332L13.0673 2.5332L13.0634 2.53418L13.0613 2.53516L13.0596 2.53516L13.0557 2.53711L13.0518 2.53711L13.0509 2.53809L13.0479 2.53906L13.044 2.54004L13.041 2.54102L13.0406 2.54102L13.0368 2.54199L13.0329 2.54395L13.0307 2.54492L13.029 2.54492L13.0251 2.5459L13.0217 2.54785L13.0208 2.54785L13.0179 2.54883L13.0145 2.5498L13.0111 2.55176L13.0107 2.55176L13.009 2.55273L13.0068 2.55371L13.0034 2.55469L13.0018 2.55566L13.0001 2.55664L12.9962 2.55762L12.9928 2.55957L12.9924 2.55957L12.9915 2.55957L12.9889 2.56055L12.9856 2.5625L12.983 2.56445L12.9821 2.56445L12.9787 2.56641L12.9753 2.56738L12.9736 2.56836L12.9714 2.56934L12.968 2.57129L12.9647 2.57324L12.9643 2.57324L12.9613 2.5752L12.9579 2.57715L12.9554 2.5791L12.955 2.5791L12.9516 2.58105L12.9482 2.58301L12.9469 2.58398L12.9447 2.58496L12.9413 2.58691L12.9384 2.58887L12.938 2.58984L12.935 2.5918L12.932 2.59375L12.9294 2.5957L12.9286 2.5957L0.239624 9.92188C0.117462 9.98242 0.0291748 10.0986 0.00610352 10.2373L0.00518799 10.2402L0.00387573 10.251L0.00350952 10.251L0.00311279 10.2578L0.00219727 10.2617L0.00219727 10.2646L0.00167847 10.2715L0.00128174 10.2725L0.00128174 10.2783L0.000396729 10.292L0 10.2939L0 24.0322C0 24.2012 0.0977783 24.3467 0.239502 24.416L12.9285 31.7422L12.9293 31.7422L12.9319 31.7441L12.9348 31.7461L12.9378 31.748L12.9382 31.748L12.9412 31.751L12.9446 31.752L12.9468 31.7539L12.9481 31.7539L12.9514 31.7568L12.9548 31.7578L12.9552 31.7588L12.9561 31.7588L12.9578 31.7598L12.9612 31.7617L12.9642 31.7637L12.9645 31.7637L12.9679 31.7656L12.9713 31.7676L12.9735 31.7686L12.9752 31.7695L12.9819 31.7725L12.9828 31.7734L12.9854 31.7744L12.9922 31.7773L12.9926 31.7773L12.9959 31.7793L12.9998 31.7803L13.0015 31.7812L13.0032 31.7822L13.0066 31.7832L13.0105 31.7852L13.0108 31.7861L13.0142 31.7861L13.0176 31.7881L13.0206 31.7891L13.0215 31.79L13.0248 31.791L13.0287 31.792L13.0304 31.793L13.0326 31.793L13.0365 31.7949L13.0404 31.7959L13.0408 31.7959L13.0438 31.7969L13.0477 31.7979L13.0507 31.7988L13.0515 31.7988L13.0555 31.8008L13.0593 31.8008L13.061 31.8018L13.0631 31.8027L13.0709 31.8047L13.0713 31.8047L13.0746 31.8047L13.0789 31.8057L13.0819 31.8066L13.0828 31.8066L13.0867 31.8076L13.0906 31.8086L13.0923 31.8086L13.0945 31.8086L13.0988 31.8096L13.1026 31.8105L13.103 31.8105L13.1064 31.8115L13.1107 31.8115L13.1137 31.8115L13.1146 31.8115L13.1189 31.8125L13.1227 31.8125L13.1244 31.8135L13.127 31.8135L13.1309 31.8135L13.1352 31.8145L13.1391 31.8145L13.1434 31.8145L13.1463 31.8154L13.1515 31.8154L13.1558 31.8154L13.1807 31.8154L13.185 31.8154L13.1902 31.8154L13.1931 31.8145L13.1974 31.8145L13.2013 31.8145L13.2056 31.8135L13.2095 31.8135L13.2121 31.8135L13.2138 31.8125L13.2177 31.8125L13.2219 31.8115L13.2228 31.8115L13.2258 31.8115L13.2301 31.8115L13.2335 31.8105L13.2339 31.8105L13.2378 31.8096L13.242 31.8086L13.2442 31.8086L13.2459 31.8086L13.2498 31.8076L13.2537 31.8066L13.2545 31.8066L13.2575 31.8057L13.2617 31.8047L13.2651 31.8047L13.2655 31.8047L13.2733 31.8027L13.2755 31.8018L13.2772 31.8008L13.2811 31.8008L13.2849 31.7988L13.2859 31.7988L13.2888 31.7979L13.2927 31.7969L13.2957 31.7959L13.2966 31.7959L13.3 31.7949L13.3039 31.793L13.3061 31.793L13.3078 31.792L13.3117 31.791L13.315 31.79L13.3158 31.7891L13.3188 31.7881L13.3222 31.7861L13.3255 31.7861L13.3259 31.7852L13.3298 31.7832L13.3332 31.7822L13.3349 31.7812L13.3365 31.7803L13.3405 31.7793L13.3438 31.7773L13.3443 31.7773L13.3511 31.7744L13.3537 31.7734L13.3545 31.7725L13.3612 31.7695L13.3629 31.7686L13.3651 31.7676L13.3685 31.7656L13.3718 31.7637L13.3723 31.7637L13.3753 31.7617L13.3787 31.7598L13.3804 31.7588L13.3812 31.7588L13.3817 31.7578L13.385 31.7568L13.3884 31.7539L13.3897 31.7539L13.3918 31.752L13.3952 31.751L13.3981 31.748L13.3985 31.748L13.4015 31.7461L13.4045 31.7441L13.4071 31.7422L13.4079 31.7422L26.0969 24.416C26.219 24.3555 26.3073 24.2393 26.3304 24.1006L26.3312 24.0977L26.3325 24.0869L26.3329 24.0869L26.3333 24.0801L26.3342 24.0762L26.3342 24.0732L26.3346 24.0664L26.3351 24.0654L26.3351 24.0596L26.3358 24.0459L26.3364 24.043L26.3364 10.3057C26.3364 10.1367 26.2386 9.99121 26.0969 9.92188Z" clip-rule="evenodd" fill="" fill-opacity="1.000000" fill-rule="evenodd"/>
	</mask>
	<path id="Shape" d="M0.854492 23.2939L11.2575 17.2881C11.2542 17.2412 11.2525 17.1934 11.2525 17.1455L11.2551 17.0488L0.854492 11.0439L0.854492 23.2939ZM0.854492 23.2939L0.85434 23.2939L0.854492 23.2939L0.854492 23.2939ZM13.5955 15.2861C13.9477 15.3682 14.2628 15.5479 14.5108 15.7949C14.6342 15.9189 14.7404 16.0596 14.8268 16.2129L25.0579 10.3057L13.5955 3.6875L13.5955 15.2861ZM15.0696 17.0557L15.0718 17.1455C15.0718 17.1914 15.0702 17.2363 15.0672 17.2803L25.4828 23.2939L25.4828 11.0439L15.0698 17.0557L15.0696 17.0557ZM14.8075 18.1143C14.7255 18.2529 14.6255 18.3809 14.5125 18.4941C14.2635 18.7432 13.9477 18.9238 13.5955 19.0059L13.5955 30.6504L25.0579 24.0322L14.8075 18.1143ZM12.7415 19.0088C12.3842 18.9277 12.0639 18.7461 11.8134 18.4961C11.7011 18.3838 11.6026 18.2568 11.5205 18.1201L1.27914 24.0322L12.7415 30.6504L12.7415 19.0088ZM11.5004 16.207C11.5853 16.0566 11.6903 15.9189 11.8116 15.7969C12.0635 15.5459 12.384 15.3633 12.7414 15.2832L12.7414 3.6875L1.27899 10.3057L11.5004 16.207ZM13.9095 16.3984C13.7187 16.208 13.454 16.0898 13.162 16.0898C12.87 16.0898 12.6053 16.208 12.4145 16.3984C12.224 16.5889 12.1062 16.8535 12.1062 17.1455C12.1062 17.4375 12.2244 17.7021 12.4145 17.8936C12.6054 18.083 12.87 18.2012 13.162 18.2012C13.454 18.2012 13.7188 18.084 13.9095 17.8936C14.0995 17.7021 14.2177 17.4375 14.2177 17.1455C14.2177 16.8535 14.0999 16.5889 13.9095 16.3984ZM26.0969 9.92188L13.4079 2.5957L13.4083 2.5957L13.4075 2.5957L13.4049 2.59375L13.4019 2.5918L13.3989 2.58984L13.3985 2.58887L13.3956 2.58691L13.3922 2.58496L13.3901 2.58398L13.3888 2.58301L13.3854 2.58105L13.3821 2.5791L13.3816 2.5791L13.379 2.57715L13.3756 2.5752L13.3726 2.57324L13.3721 2.57324L13.3687 2.57129L13.3654 2.56934L13.3631 2.56836L13.3615 2.56738L13.3581 2.56641L13.3547 2.56445L13.3539 2.56445L13.3513 2.5625L13.348 2.56055L13.3454 2.55957L13.3446 2.55957L13.3441 2.55957L13.3407 2.55762L13.3368 2.55664L13.3351 2.55566L13.3334 2.55469L13.3301 2.55371L13.3284 2.55273L13.3262 2.55176L13.3258 2.55176L13.3224 2.5498L13.3191 2.54883L13.3161 2.54785L13.3153 2.54785L13.3119 2.5459L13.308 2.54492L13.3063 2.54492L13.3041 2.54395L13.3003 2.54199L13.2969 2.54102L13.296 2.54102L13.293 2.54004L13.2891 2.53906L13.2861 2.53809L13.2852 2.53711L13.2813 2.53711L13.2774 2.53516L13.2758 2.53516L13.2735 2.53418L13.2697 2.5332L13.2657 2.5332L13.2654 2.5332L13.262 2.53223L13.2577 2.53125L13.2547 2.53027L13.254 2.53027L13.2501 2.5293L13.2462 2.52832L13.2445 2.52832L13.2423 2.52832L13.238 2.52734L13.2341 2.52637L13.2337 2.52637L13.2304 2.52637L13.2261 2.52539L13.2231 2.52539L13.2222 2.52539L13.2179 2.52441L13.2162 2.52441L13.2123 2.52344L13.2097 2.52344L13.2059 2.52344L13.2016 2.52246L13.1977 2.52246L13.1934 2.52246L13.1904 2.52148L13.1852 2.52148L13.181 2.52148L13.1561 2.52148L13.1518 2.52148L13.1466 2.52148L13.1436 2.52246L13.1393 2.52246L13.1354 2.52246L13.1312 2.52344L13.1273 2.52344L13.1247 2.52344L13.1208 2.52441L13.1191 2.52441L13.1148 2.52539L13.1139 2.52539L13.1109 2.52539L13.1067 2.52637L13.1033 2.52637L13.1029 2.52637L13.099 2.52734L13.0947 2.52832L13.0925 2.52832L13.0909 2.52832L13.0869 2.5293L13.0831 2.53027L13.0822 2.53027L13.0792 2.53125L13.0749 2.53223L13.0715 2.5332L13.0711 2.5332L13.0673 2.5332L13.0634 2.53418L13.0613 2.53516L13.0596 2.53516L13.0557 2.53711L13.0518 2.53711L13.0509 2.53809L13.0479 2.53906L13.044 2.54004L13.041 2.54102L13.0406 2.54102L13.0368 2.54199L13.0329 2.54395L13.0307 2.54492L13.029 2.54492L13.0251 2.5459L13.0217 2.54785L13.0208 2.54785L13.0179 2.54883L13.0145 2.5498L13.0111 2.55176L13.0107 2.55176L13.009 2.55273L13.0068 2.55371L13.0034 2.55469L13.0018 2.55566L13.0001 2.55664L12.9962 2.55762L12.9928 2.55957L12.9924 2.55957L12.9915 2.55957L12.9889 2.56055L12.9856 2.5625L12.983 2.56445L12.9821 2.56445L12.9787 2.56641L12.9753 2.56738L12.9736 2.56836L12.9714 2.56934L12.968 2.57129L12.9647 2.57324L12.9643 2.57324L12.9613 2.5752L12.9579 2.57715L12.9554 2.5791L12.955 2.5791L12.9516 2.58105L12.9482 2.58301L12.9469 2.58398L12.9447 2.58496L12.9413 2.58691L12.9384 2.58887L12.938 2.58984L12.935 2.5918L12.932 2.59375L12.9294 2.5957L12.9286 2.5957L0.239624 9.92188C0.117462 9.98242 0.0291748 10.0986 0.00610352 10.2373L0.00518799 10.2402L0.00387573 10.251L0.00350952 10.251L0.00311279 10.2578L0.00219727 10.2617L0.00219727 10.2646L0.00167847 10.2715L0.00128174 10.2725L0.00128174 10.2783L0.000396729 10.292L0 10.2939L0 24.0322C0 24.2012 0.0977783 24.3467 0.239502 24.416L12.9285 31.7422L12.9293 31.7422L12.9319 31.7441L12.9348 31.7461L12.9378 31.748L12.9382 31.748L12.9412 31.751L12.9446 31.752L12.9468 31.7539L12.9481 31.7539L12.9514 31.7568L12.9548 31.7578L12.9552 31.7588L12.9561 31.7588L12.9578 31.7598L12.9612 31.7617L12.9642 31.7637L12.9645 31.7637L12.9679 31.7656L12.9713 31.7676L12.9735 31.7686L12.9752 31.7695L12.9819 31.7725L12.9828 31.7734L12.9854 31.7744L12.9922 31.7773L12.9926 31.7773L12.9959 31.7793L12.9998 31.7803L13.0015 31.7812L13.0032 31.7822L13.0066 31.7832L13.0105 31.7852L13.0108 31.7861L13.0142 31.7861L13.0176 31.7881L13.0206 31.7891L13.0215 31.79L13.0248 31.791L13.0287 31.792L13.0304 31.793L13.0326 31.793L13.0365 31.7949L13.0404 31.7959L13.0408 31.7959L13.0438 31.7969L13.0477 31.7979L13.0507 31.7988L13.0515 31.7988L13.0555 31.8008L13.0593 31.8008L13.061 31.8018L13.0631 31.8027L13.0709 31.8047L13.0713 31.8047L13.0746 31.8047L13.0789 31.8057L13.0819 31.8066L13.0828 31.8066L13.0867 31.8076L13.0906 31.8086L13.0923 31.8086L13.0945 31.8086L13.0988 31.8096L13.1026 31.8105L13.103 31.8105L13.1064 31.8115L13.1107 31.8115L13.1137 31.8115L13.1146 31.8115L13.1189 31.8125L13.1227 31.8125L13.1244 31.8135L13.127 31.8135L13.1309 31.8135L13.1352 31.8145L13.1391 31.8145L13.1434 31.8145L13.1463 31.8154L13.1515 31.8154L13.1558 31.8154L13.1807 31.8154L13.185 31.8154L13.1902 31.8154L13.1931 31.8145L13.1974 31.8145L13.2013 31.8145L13.2056 31.8135L13.2095 31.8135L13.2121 31.8135L13.2138 31.8125L13.2177 31.8125L13.2219 31.8115L13.2228 31.8115L13.2258 31.8115L13.2301 31.8115L13.2335 31.8105L13.2339 31.8105L13.2378 31.8096L13.242 31.8086L13.2442 31.8086L13.2459 31.8086L13.2498 31.8076L13.2537 31.8066L13.2545 31.8066L13.2575 31.8057L13.2617 31.8047L13.2651 31.8047L13.2655 31.8047L13.2733 31.8027L13.2755 31.8018L13.2772 31.8008L13.2811 31.8008L13.2849 31.7988L13.2859 31.7988L13.2888 31.7979L13.2927 31.7969L13.2957 31.7959L13.2966 31.7959L13.3 31.7949L13.3039 31.793L13.3061 31.793L13.3078 31.792L13.3117 31.791L13.315 31.79L13.3158 31.7891L13.3188 31.7881L13.3222 31.7861L13.3255 31.7861L13.3259 31.7852L13.3298 31.7832L13.3332 31.7822L13.3349 31.7812L13.3365 31.7803L13.3405 31.7793L13.3438 31.7773L13.3443 31.7773L13.3511 31.7744L13.3537 31.7734L13.3545 31.7725L13.3612 31.7695L13.3629 31.7686L13.3651 31.7676L13.3685 31.7656L13.3718 31.7637L13.3723 31.7637L13.3753 31.7617L13.3787 31.7598L13.3804 31.7588L13.3812 31.7588L13.3817 31.7578L13.385 31.7568L13.3884 31.7539L13.3897 31.7539L13.3918 31.752L13.3952 31.751L13.3981 31.748L13.3985 31.748L13.4015 31.7461L13.4045 31.7441L13.4071 31.7422L13.4079 31.7422L26.0969 24.416C26.219 24.3555 26.3073 24.2393 26.3304 24.1006L26.3312 24.0977L26.3325 24.0869L26.3329 24.0869L26.3333 24.0801L26.3342 24.0762L26.3342 24.0732L26.3346 24.0664L26.3351 24.0654L26.3351 24.0596L26.3358 24.0459L26.3364 24.043L26.3364 10.3057C26.3364 10.1367 26.2386 9.99121 26.0969 9.92188Z" clip-rule="evenodd" fill="url(#paint_linear_0_1816_0)" fill-opacity="1.000000" fill-rule="evenodd" mask="url(#mask_0_1816)"/>
	<path id="Shape" d="" fill="#979797" fill-opacity="0.000000" fill-rule="nonzero"/>
	<path id="Shape" d="M73.0144 6.63867C74.542 6.63867 75.9351 6.98242 77.1932 7.66797C77.823 8.01172 78.3865 8.42188 78.8822 8.89941C79.3792 9.37793 79.8091 9.92285 80.1703 10.5322C80.531 11.1416 80.8026 11.793 80.9836 12.4854C81.1646 13.1758 81.2551 13.9043 81.2551 14.6689C81.2551 15.4326 81.1646 16.1621 80.9836 16.8555C80.8029 17.5488 80.5314 18.2051 80.1703 18.8203C79.8092 19.4346 79.3792 19.9844 78.8826 20.4648C78.3874 20.9434 77.8234 21.3555 77.1932 21.6992C76.5649 22.042 75.9005 22.3008 75.2037 22.4717C74.5061 22.6436 73.7755 22.7295 73.0143 22.7295C72.1322 22.7295 71.2997 22.6172 70.5175 22.3955C69.7361 22.1729 69.0044 21.8379 68.3243 21.3906C67.6451 20.9443 67.0627 20.418 66.5799 19.8145C66.3104 19.4775 66.0718 19.1162 65.8639 18.7305L65.8639 22.6396L64.7735 22.6396L64.7735 0L65.8639 0L65.8639 10.6201C66.073 10.2373 66.3134 9.87891 66.5849 9.54395C67.0699 8.94629 67.6566 8.42285 68.3413 7.97656C69.0261 7.53027 69.7592 7.19434 70.5374 6.97266C71.3166 6.75 72.1428 6.63867 73.0142 6.63867L73.0144 6.63867ZM56.9287 2.82715C57.0535 2.87793 57.1904 2.90332 57.3356 2.90332L57.3356 2.9043C57.4718 2.9043 57.6024 2.87695 57.7254 2.82617C57.8436 2.77734 57.9576 2.70215 58.0639 2.60254C58.1707 2.50293 58.2517 2.39453 58.3055 2.28027C58.3623 2.15918 58.3913 2.03223 58.3913 1.90039C58.3913 1.75977 58.3628 1.62695 58.3064 1.50293C58.2505 1.38184 58.1677 1.27344 58.0583 1.17773C57.8458 0.991211 57.6042 0.897461 57.3356 0.897461C57.1922 0.897461 57.0568 0.920898 56.9322 0.967773C56.8067 1.01562 56.6931 1.08789 56.5911 1.18262C56.3836 1.37695 56.2794 1.61719 56.2794 1.90039C56.2794 2.03125 56.3063 2.15723 56.3596 2.27637C56.4113 2.3916 56.4872 2.50098 56.5859 2.59863C56.6874 2.69922 56.8019 2.77637 56.9287 2.82715ZM99.7744 14.8945L85.3141 14.8945C85.3478 16.1582 85.6667 17.2959 86.2686 18.3066C86.588 18.8418 86.9688 19.3193 87.4085 19.7354C87.8469 20.1514 88.3486 20.5098 88.9113 20.8086C89.4722 21.1084 90.0704 21.334 90.7048 21.4834C91.3402 21.6338 92.0117 21.709 92.7175 21.709C93.2683 21.709 93.8015 21.6592 94.3159 21.5605C94.8312 21.4609 95.3299 21.3115 95.8094 21.1143C96.2859 20.917 96.7219 20.6748 97.1154 20.3887C97.5068 20.1035 97.8566 19.7734 98.1635 19.4004L98.3154 19.2148L99.098 19.9473L98.9532 20.1104C98.5788 20.5332 98.1609 20.9072 97.7006 21.2305C97.2408 21.5527 96.7365 21.8271 96.1875 22.0537C95.641 22.2783 95.0775 22.4482 94.4998 22.5605C93.9218 22.6719 93.3261 22.7295 92.7173 22.7295C91.1048 22.7295 89.6587 22.3857 88.3801 21.7002C87.7393 21.3574 87.1659 20.9443 86.662 20.4648C86.1578 19.9854 85.7215 19.4365 85.3548 18.8213C84.9881 18.2061 84.7114 17.5498 84.5278 16.8564C84.3445 16.1631 84.2524 15.4336 84.2524 14.6689C84.2524 13.9053 84.3374 13.1768 84.5073 12.4873C84.6768 11.7979 84.9321 11.1475 85.2711 10.5371C85.6114 9.92676 86.0166 9.38086 86.4854 8.9043C86.9538 8.42676 87.4883 8.01465 88.0868 7.66992C89.2827 6.98242 90.6242 6.6377 92.1103 6.6377C92.8408 6.6377 93.541 6.72266 94.2091 6.89258C94.8777 7.06152 95.5142 7.31543 96.1162 7.65332C96.7177 7.99121 97.2578 8.39648 97.733 8.86328C98.2077 9.33203 98.6188 9.86426 98.9639 10.459C99.3093 11.0547 99.5693 11.6934 99.7413 12.3711C99.9138 13.0469 100 13.7637 100 14.5186L100 14.8945L99.7741 14.8945L99.7744 14.8945ZM45.6913 22.6396L53.3544 7.05273L53.3544 7.05273L53.5136 6.72754L52.2773 6.72754L45.2328 21.2109L38.1883 6.72754L36.952 6.72754C39.5613 12.0303 42.1738 17.333 44.7738 22.6396L45.6913 22.6396ZM56.7905 6.72852L57.8809 6.72852L57.8809 22.6396L56.7905 22.6396L56.7905 6.72852ZM90.3368 7.86719C90.8966 7.72852 91.4888 7.6582 92.1104 7.6582L92.1102 7.65723C92.7324 7.65723 93.3246 7.72754 93.8847 7.86719C94.4448 8.00684 94.978 8.2168 95.4814 8.49609C95.9855 8.77539 96.4419 9.1084 96.8484 9.49414C97.2557 9.87988 97.6147 10.3203 97.9235 10.8115C98.2317 11.3018 98.4712 11.8232 98.6406 12.3721C98.7883 12.8496 98.8839 13.3516 98.9267 13.875L85.3257 13.875C85.368 13.3506 85.4624 12.8486 85.6075 12.3721C85.7745 11.8223 86.011 11.3018 86.3141 10.8096C86.6169 10.3193 86.972 9.87988 87.376 9.49414C87.7804 9.10938 88.2355 8.77539 88.7393 8.49609C89.2426 8.21777 89.7759 8.00781 90.3368 7.86719ZM74.9403 21.4844C74.3325 21.6338 73.6898 21.709 73.0144 21.709L73.0142 21.709C72.3387 21.709 71.6963 21.6338 71.0883 21.4844C70.4799 21.335 69.9011 21.1104 69.3545 20.8105C68.8085 20.5117 68.3209 20.1533 67.8944 19.7373C67.4688 19.3213 67.1003 18.8438 66.7908 18.3096C66.4826 17.7754 66.2508 17.2041 66.0962 16.5977C65.9417 15.9922 65.864 15.3486 65.864 14.6689C65.864 13.9883 65.9417 13.3447 66.0962 12.7393C66.2506 12.1328 66.483 11.5615 66.7912 11.0273C67.099 10.4941 67.4674 10.0195 67.8944 9.60449C68.3206 9.19141 68.8072 8.83691 69.3528 8.54297C69.9011 8.24805 70.48 8.02539 71.0875 7.87891C71.6951 7.73145 72.3381 7.6582 73.0143 7.6582C73.6906 7.6582 74.3336 7.73145 74.9411 7.87891C75.5486 8.02637 76.128 8.24805 76.6757 8.54297C77.2219 8.83691 77.7085 9.19141 78.1342 9.60449C78.5616 10.0195 78.9301 10.4941 79.2379 11.0273C79.5461 11.5615 79.7783 12.1328 79.9329 12.7393C80.087 13.3447 80.1647 13.9893 80.1647 14.6689C80.1647 15.3477 80.087 15.9922 79.9329 16.5977C79.7783 17.2041 79.5461 17.7764 79.2379 18.3105C78.9295 18.8438 78.5612 19.3203 78.1338 19.7373C77.7069 20.1543 77.2198 20.5127 76.6742 20.8105C76.1267 21.1104 75.5478 21.3359 74.9403 21.4844Z" clip-rule="evenodd" fill="#FFFFFF" fill-opacity="1.000000" fill-rule="evenodd"/>
</svg>
