<svg width="53.994934" height="49.423340" viewBox="0 0 53.9949 49.4233" fill="none" xmlns="http://www.w3.org/2000/svg" xmlns:xlink="http://www.w3.org/1999/xlink">
	<desc>
			Created with Pixso.
	</desc>
	<defs>
		<linearGradient id="paint_linear_0_1034_0" x1="-5.405224" y1="22.321270" x2="26.390566" y2="54.971191" gradientUnits="userSpaceOnUse">
			<stop stop-color="#F8E6E2"/>
			<stop offset="1.000000" stop-color="#B0776B"/>
		</linearGradient>
	</defs>
	<mask id="mask_0_1034" fill="white">
		<path id="Combined Shape" d="M42.1042 0.20166C41.6047 -0.078125 40.9931 -0.065918 40.5049 0.23291L22.3886 11.3276L14.3463 11.3276C12.6286 11.2368 10.9946 11.8354 9.7403 13.0161C9.27338 13.4556 8.87982 13.9629 8.56622 14.5151L4.58612 14.5151C2.05731 14.5151 0 16.5728 0 19.1016L0 26.2949C0 28.8237 2.05731 30.8809 4.58612 30.8809L8.55829 30.8809C9.19525 32.0195 10.1568 32.9639 11.3259 33.5884L5.81445 43.1348C5.60303 43.501 5.54706 43.9365 5.65894 44.3442C5.77094 44.7524 6.0415 45.0981 6.41034 45.3052L13.3898 49.2207C13.6345 49.3579 13.9002 49.4233 14.1624 49.4233C14.7094 49.4233 15.241 49.1392 15.5336 48.6318L23.4036 35.0005L40.5228 45.1743C40.7717 45.3223 41.0513 45.396 41.331 45.396C41.6008 45.396 41.8705 45.3271 42.1132 45.189C42.6075 44.9077 42.9128 44.3828 42.9128 43.8145L42.9128 1.58203C42.9128 1.00928 42.6036 0.481445 42.1042 0.20166ZM39.7491 41.0342L24.4166 31.9224L24.4166 13.7959L39.7491 4.40576L39.7491 41.0342ZM47.5705 15.9209C47.2617 16.2295 46.8566 16.3843 46.452 16.3843C46.0471 16.3843 45.6423 16.2295 45.3334 15.9209C44.7156 15.3032 44.7156 14.3013 45.3334 13.6836L48.5245 10.4927C49.1423 9.875 50.1439 9.875 50.7617 10.4927C51.3793 11.1104 51.3793 12.1118 50.7617 12.7295L47.5705 15.9209ZM10.8753 17.75C10.8753 16.8237 11.2519 15.938 11.9085 15.3198C12.5335 14.7319 13.3489 14.436 14.2057 14.4888C14.2377 14.4907 21.2529 14.4912 21.2529 14.4912L21.2529 31.2402L14.3535 31.2402C12.3995 31.1001 10.8753 29.5293 10.8753 27.6465L10.8753 17.75ZM3.16376 26.2949C3.16376 27.0791 3.80182 27.7173 4.58612 27.7173L7.71338 27.7173C7.71307 27.6938 7.71161 27.6704 7.71161 27.6465L7.71161 17.75C7.71161 17.7261 7.71313 17.7026 7.71338 17.6792L4.58612 17.6792C3.80182 17.6792 3.16376 18.3169 3.16376 19.1016L3.16376 26.2949ZM52.4131 21.1162L47.9002 21.1162C47.0266 21.1162 46.3183 21.8242 46.3183 22.6978C46.3183 23.5713 47.0266 24.2798 47.9002 24.2798L52.4131 24.2798C53.2867 24.2798 53.9949 23.5713 53.9949 22.6978C53.9949 21.8242 53.2867 21.1162 52.4131 21.1162ZM47.5705 29.4751C46.9527 28.8574 45.9512 28.8574 45.3334 29.4751C44.7156 30.0928 44.7156 31.0942 45.3334 31.7124L48.5245 34.9033C48.8334 35.2124 49.2381 35.3667 49.643 35.3667C50.0479 35.3667 50.4527 35.2119 50.7617 34.9033C51.3793 34.2856 51.3793 33.2842 50.7617 32.666L47.5705 29.4751ZM9.35504 43.3296L13.5751 45.6973L20.0949 34.4043L14.4953 34.4043C14.4716 34.459 14.4454 34.5127 14.4149 34.5654L9.35504 43.3296Z" clip-rule="evenodd" fill="" fill-opacity="1.000000" fill-rule="evenodd"/>
	</mask>
	<path id="Combined Shape" d="M42.1042 0.20166C41.6047 -0.078125 40.9931 -0.065918 40.5049 0.23291L22.3886 11.3276L14.3463 11.3276C12.6286 11.2368 10.9946 11.8354 9.7403 13.0161C9.27338 13.4556 8.87982 13.9629 8.56622 14.5151L4.58612 14.5151C2.05731 14.5151 0 16.5728 0 19.1016L0 26.2949C0 28.8237 2.05731 30.8809 4.58612 30.8809L8.55829 30.8809C9.19525 32.0195 10.1568 32.9639 11.3259 33.5884L5.81445 43.1348C5.60303 43.501 5.54706 43.9365 5.65894 44.3442C5.77094 44.7524 6.0415 45.0981 6.41034 45.3052L13.3898 49.2207C13.6345 49.3579 13.9002 49.4233 14.1624 49.4233C14.7094 49.4233 15.241 49.1392 15.5336 48.6318L23.4036 35.0005L40.5228 45.1743C40.7717 45.3223 41.0513 45.396 41.331 45.396C41.6008 45.396 41.8705 45.3271 42.1132 45.189C42.6075 44.9077 42.9128 44.3828 42.9128 43.8145L42.9128 1.58203C42.9128 1.00928 42.6036 0.481445 42.1042 0.20166ZM39.7491 41.0342L24.4166 31.9224L24.4166 13.7959L39.7491 4.40576L39.7491 41.0342ZM47.5705 15.9209C47.2617 16.2295 46.8566 16.3843 46.452 16.3843C46.0471 16.3843 45.6423 16.2295 45.3334 15.9209C44.7156 15.3032 44.7156 14.3013 45.3334 13.6836L48.5245 10.4927C49.1423 9.875 50.1439 9.875 50.7617 10.4927C51.3793 11.1104 51.3793 12.1118 50.7617 12.7295L47.5705 15.9209ZM10.8753 17.75C10.8753 16.8237 11.2519 15.938 11.9085 15.3198C12.5335 14.7319 13.3489 14.436 14.2057 14.4888C14.2377 14.4907 21.2529 14.4912 21.2529 14.4912L21.2529 31.2402L14.3535 31.2402C12.3995 31.1001 10.8753 29.5293 10.8753 27.6465L10.8753 17.75ZM3.16376 26.2949C3.16376 27.0791 3.80182 27.7173 4.58612 27.7173L7.71338 27.7173C7.71307 27.6938 7.71161 27.6704 7.71161 27.6465L7.71161 17.75C7.71161 17.7261 7.71313 17.7026 7.71338 17.6792L4.58612 17.6792C3.80182 17.6792 3.16376 18.3169 3.16376 19.1016L3.16376 26.2949ZM52.4131 21.1162L47.9002 21.1162C47.0266 21.1162 46.3183 21.8242 46.3183 22.6978C46.3183 23.5713 47.0266 24.2798 47.9002 24.2798L52.4131 24.2798C53.2867 24.2798 53.9949 23.5713 53.9949 22.6978C53.9949 21.8242 53.2867 21.1162 52.4131 21.1162ZM47.5705 29.4751C46.9527 28.8574 45.9512 28.8574 45.3334 29.4751C44.7156 30.0928 44.7156 31.0942 45.3334 31.7124L48.5245 34.9033C48.8334 35.2124 49.2381 35.3667 49.643 35.3667C50.0479 35.3667 50.4527 35.2119 50.7617 34.9033C51.3793 34.2856 51.3793 33.2842 50.7617 32.666L47.5705 29.4751ZM9.35504 43.3296L13.5751 45.6973L20.0949 34.4043L14.4953 34.4043C14.4716 34.459 14.4454 34.5127 14.4149 34.5654L9.35504 43.3296Z" clip-rule="evenodd" fill="url(#paint_linear_0_1034_0)" fill-opacity="1.000000" fill-rule="evenodd" mask="url(#mask_0_1034)"/>
	<path id="Combined Shape" d="" fill="#979797" fill-opacity="0.000000" fill-rule="nonzero"/>
</svg>
