<svg width="56.435425" height="36.092773" viewBox="0 0 56.4354 36.0928" fill="none" xmlns="http://www.w3.org/2000/svg" xmlns:xlink="http://www.w3.org/1999/xlink">
	<desc>
			Created with Pixso.
	</desc>
	<defs>
		<linearGradient id="paint_linear_0_1055_0" x1="-5.649538" y1="16.300758" x2="27.583376" y2="40.144302" gradientUnits="userSpaceOnUse">
			<stop stop-color="#F8E6E2"/>
			<stop offset="1.000000" stop-color="#B0776B"/>
		</linearGradient>
	</defs>
	<mask id="mask_0_1055" fill="white">
		<path id="Shape" d="M56.4354 9.51416C56.4354 6.55322 54.0265 4.14404 51.0654 4.14404C48.1044 4.14404 45.6958 6.55322 45.6958 9.51416C45.6958 10.9375 46.2534 12.2329 47.161 13.1948C45.5469 15.0005 43.2028 16.1401 40.5962 16.1401C36.3766 16.1401 32.8425 13.1572 31.9873 9.18994C32.9746 8.21582 33.5878 6.86328 33.5878 5.37012C33.5878 2.40918 31.1787 0 28.2178 0C25.2567 0 22.8477 2.40918 22.8477 5.37012C22.8477 6.86328 23.4613 8.21582 24.4481 9.18994C23.593 13.1572 20.0588 16.1401 15.8394 16.1401C13.2327 16.1401 10.8887 15.0005 9.27441 13.1948C10.1821 12.2329 10.7401 10.9375 10.7401 9.51416C10.7401 6.55322 8.33105 4.14404 5.37 4.14404C2.40906 4.14404 0 6.55322 0 9.51416C0 12.0806 1.80969 14.231 4.2196 14.7588C4.79089 19.4741 6.00122 25.4248 8.5614 29.4727L8.5614 34.4302C8.5614 35.3481 9.30542 36.0928 10.2234 36.0928L46.212 36.0928C47.13 36.0928 47.874 35.3481 47.874 34.4302L47.874 29.4727C50.4342 25.4248 51.6445 19.4746 52.2159 14.7588C54.6259 14.2305 56.4354 12.0806 56.4354 9.51416ZM26.1716 5.37012C26.1716 4.24219 27.0896 3.32422 28.2178 3.32422C29.3458 3.32422 30.2634 4.24219 30.2634 5.37012C30.2634 6.49805 29.3458 7.41553 28.2178 7.41553C27.0896 7.41553 26.1716 6.49805 26.1716 5.37012ZM5.37 7.46826C4.24194 7.46826 3.32397 8.38623 3.32397 9.51416C3.32397 10.6426 4.24194 11.5601 5.37 11.5601C6.49817 11.5601 7.41565 10.6426 7.41565 9.51416C7.41565 8.38623 6.49817 7.46826 5.37 7.46826ZM51.0654 7.46826C49.9374 7.46826 49.0198 8.38623 49.0198 9.51416C49.0198 10.6426 49.9374 11.5601 51.0654 11.5601C52.1935 11.5601 53.1115 10.6426 53.1115 9.51416C53.1115 8.38623 52.1935 7.46826 51.0654 7.46826ZM11.1371 27.3159L45.2988 27.3159C47.0508 24.3447 48.0553 20.1763 48.631 16.4146C46.4897 18.3115 43.6747 19.4644 40.5962 19.4644C35.071 19.4644 30.3977 15.7515 28.9376 10.6899C28.7021 10.7222 28.4619 10.7397 28.2178 10.7397C27.9736 10.7397 27.7334 10.7222 27.4978 10.6899C26.0377 15.7515 21.3644 19.4644 15.8394 19.4644C12.7616 19.4644 9.94824 18.3125 7.80713 16.417C8.38318 20.1797 9.3877 24.3481 11.1371 27.3159ZM11.8854 32.7686L11.8854 30.6401L44.55 30.6401L44.55 32.7686L11.8854 32.7686Z" clip-rule="evenodd" fill="" fill-opacity="1.000000" fill-rule="evenodd"/>
	</mask>
	<path id="Shape" d="M56.4354 9.51416C56.4354 6.55322 54.0265 4.14404 51.0654 4.14404C48.1044 4.14404 45.6958 6.55322 45.6958 9.51416C45.6958 10.9375 46.2534 12.2329 47.161 13.1948C45.5469 15.0005 43.2028 16.1401 40.5962 16.1401C36.3766 16.1401 32.8425 13.1572 31.9873 9.18994C32.9746 8.21582 33.5878 6.86328 33.5878 5.37012C33.5878 2.40918 31.1787 0 28.2178 0C25.2567 0 22.8477 2.40918 22.8477 5.37012C22.8477 6.86328 23.4613 8.21582 24.4481 9.18994C23.593 13.1572 20.0588 16.1401 15.8394 16.1401C13.2327 16.1401 10.8887 15.0005 9.27441 13.1948C10.1821 12.2329 10.7401 10.9375 10.7401 9.51416C10.7401 6.55322 8.33105 4.14404 5.37 4.14404C2.40906 4.14404 0 6.55322 0 9.51416C0 12.0806 1.80969 14.231 4.2196 14.7588C4.79089 19.4741 6.00122 25.4248 8.5614 29.4727L8.5614 34.4302C8.5614 35.3481 9.30542 36.0928 10.2234 36.0928L46.212 36.0928C47.13 36.0928 47.874 35.3481 47.874 34.4302L47.874 29.4727C50.4342 25.4248 51.6445 19.4746 52.2159 14.7588C54.6259 14.2305 56.4354 12.0806 56.4354 9.51416ZM26.1716 5.37012C26.1716 4.24219 27.0896 3.32422 28.2178 3.32422C29.3458 3.32422 30.2634 4.24219 30.2634 5.37012C30.2634 6.49805 29.3458 7.41553 28.2178 7.41553C27.0896 7.41553 26.1716 6.49805 26.1716 5.37012ZM5.37 7.46826C4.24194 7.46826 3.32397 8.38623 3.32397 9.51416C3.32397 10.6426 4.24194 11.5601 5.37 11.5601C6.49817 11.5601 7.41565 10.6426 7.41565 9.51416C7.41565 8.38623 6.49817 7.46826 5.37 7.46826ZM51.0654 7.46826C49.9374 7.46826 49.0198 8.38623 49.0198 9.51416C49.0198 10.6426 49.9374 11.5601 51.0654 11.5601C52.1935 11.5601 53.1115 10.6426 53.1115 9.51416C53.1115 8.38623 52.1935 7.46826 51.0654 7.46826ZM11.1371 27.3159L45.2988 27.3159C47.0508 24.3447 48.0553 20.1763 48.631 16.4146C46.4897 18.3115 43.6747 19.4644 40.5962 19.4644C35.071 19.4644 30.3977 15.7515 28.9376 10.6899C28.7021 10.7222 28.4619 10.7397 28.2178 10.7397C27.9736 10.7397 27.7334 10.7222 27.4978 10.6899C26.0377 15.7515 21.3644 19.4644 15.8394 19.4644C12.7616 19.4644 9.94824 18.3125 7.80713 16.417C8.38318 20.1797 9.3877 24.3481 11.1371 27.3159ZM11.8854 32.7686L11.8854 30.6401L44.55 30.6401L44.55 32.7686L11.8854 32.7686Z" clip-rule="evenodd" fill="url(#paint_linear_0_1055_0)" fill-opacity="1.000000" fill-rule="evenodd" mask="url(#mask_0_1055)"/>
	<path id="Shape" d="" fill="#979797" fill-opacity="0.000000" fill-rule="nonzero"/>
</svg>
