<svg width="56.115479" height="50.406738" viewBox="0 0 56.1155 50.4067" fill="none" xmlns="http://www.w3.org/2000/svg" xmlns:xlink="http://www.w3.org/1999/xlink">
	<desc>
			Created with Pixso.
	</desc>
	<defs>
		<linearGradient id="paint_linear_0_1050_0" x1="-5.617496" y1="22.765476" x2="27.426941" y2="56.065163" gradientUnits="userSpaceOnUse">
			<stop stop-color="#F8E6E2"/>
			<stop offset="1.000000" stop-color="#B0776B"/>
		</linearGradient>
	</defs>
	<mask id="mask_0_1050" fill="white">
		<path id="Combined Shape" d="M18.99 39.6304L10.0013 39.6304C4.48657 39.6304 0 35.144 0 29.6294L0 10.0015C0 4.48682 4.48657 0 10.0013 0L46.114 0C51.6288 0 56.1155 4.48682 56.1155 10.0015L56.1155 29.6294C56.1155 35.144 51.6288 39.6304 46.114 39.6304L37.1254 39.6304L29.3627 49.7632C28.7056 50.6211 27.4103 50.6216 26.7527 49.7632L18.99 39.6304ZM3.28796 10.0015C3.28796 6.2998 6.29956 3.28809 10.0013 3.28809L46.114 3.28809C49.8158 3.28809 52.8274 6.2998 52.8274 10.0015L52.8274 29.6294C52.8274 33.3311 49.8158 36.3423 46.114 36.3423L36.314 36.3423C35.8024 36.3423 35.3199 36.5806 35.0089 36.9868L28.0577 46.0601L21.1066 36.9868C20.7955 36.5806 20.313 36.3423 19.8015 36.3423L10.0013 36.3423C6.29956 36.3423 3.28796 33.3311 3.28796 29.6294L3.28796 10.0015ZM26.8959 32.6084C27.5382 33.2505 28.5789 33.2505 29.2208 32.6084L39.574 22.2554C42.6625 19.167 42.6625 14.1416 39.574 11.0532C38.0776 9.55664 36.0883 8.73291 33.9723 8.73291C31.8562 8.73291 29.8669 9.55713 28.3708 11.0537L28.0582 11.3667L27.7443 11.0527C24.656 7.96436 19.6306 7.96387 16.5416 11.0527C13.4459 14.1484 13.4456 19.1597 16.5419 22.2554L26.8959 32.6084ZM25.4193 13.3774C24.5442 12.5024 23.3806 12.0205 22.1431 12.0205C17.9974 12.0205 15.9767 17.0405 18.8669 19.9307L28.0585 29.1211L37.2491 19.9307C40.1698 17.0098 38.0696 12.0205 33.9725 12.021C32.7349 12.021 31.5712 12.5029 30.6962 13.3784L29.2212 14.854C28.5791 15.4956 27.5377 15.4956 26.896 14.854L25.4193 13.3774Z" clip-rule="evenodd" fill="" fill-opacity="1.000000" fill-rule="evenodd"/>
	</mask>
	<path id="Combined Shape" d="M18.99 39.6304L10.0013 39.6304C4.48657 39.6304 0 35.144 0 29.6294L0 10.0015C0 4.48682 4.48657 0 10.0013 0L46.114 0C51.6288 0 56.1155 4.48682 56.1155 10.0015L56.1155 29.6294C56.1155 35.144 51.6288 39.6304 46.114 39.6304L37.1254 39.6304L29.3627 49.7632C28.7056 50.6211 27.4103 50.6216 26.7527 49.7632L18.99 39.6304ZM3.28796 10.0015C3.28796 6.2998 6.29956 3.28809 10.0013 3.28809L46.114 3.28809C49.8158 3.28809 52.8274 6.2998 52.8274 10.0015L52.8274 29.6294C52.8274 33.3311 49.8158 36.3423 46.114 36.3423L36.314 36.3423C35.8024 36.3423 35.3199 36.5806 35.0089 36.9868L28.0577 46.0601L21.1066 36.9868C20.7955 36.5806 20.313 36.3423 19.8015 36.3423L10.0013 36.3423C6.29956 36.3423 3.28796 33.3311 3.28796 29.6294L3.28796 10.0015ZM26.8959 32.6084C27.5382 33.2505 28.5789 33.2505 29.2208 32.6084L39.574 22.2554C42.6625 19.167 42.6625 14.1416 39.574 11.0532C38.0776 9.55664 36.0883 8.73291 33.9723 8.73291C31.8562 8.73291 29.8669 9.55713 28.3708 11.0537L28.0582 11.3667L27.7443 11.0527C24.656 7.96436 19.6306 7.96387 16.5416 11.0527C13.4459 14.1484 13.4456 19.1597 16.5419 22.2554L26.8959 32.6084ZM25.4193 13.3774C24.5442 12.5024 23.3806 12.0205 22.1431 12.0205C17.9974 12.0205 15.9767 17.0405 18.8669 19.9307L28.0585 29.1211L37.2491 19.9307C40.1698 17.0098 38.0696 12.0205 33.9725 12.021C32.7349 12.021 31.5712 12.5029 30.6962 13.3784L29.2212 14.854C28.5791 15.4956 27.5377 15.4956 26.896 14.854L25.4193 13.3774Z" clip-rule="evenodd" fill="url(#paint_linear_0_1050_0)" fill-opacity="1.000000" fill-rule="evenodd" mask="url(#mask_0_1050)"/>
	<path id="Combined Shape" d="" fill="#979797" fill-opacity="0.000000" fill-rule="nonzero"/>
</svg>
