<svg width="57.599976" height="54.000000" viewBox="0 0 57.6 54" fill="none" xmlns="http://www.w3.org/2000/svg" xmlns:xlink="http://www.w3.org/1999/xlink">
	<desc>
			Created with Pixso.
	</desc>
	<defs>
		<linearGradient id="paint_linear_0_1028_0" x1="-5.766106" y1="24.388256" x2="28.152554" y2="60.061592" gradientUnits="userSpaceOnUse">
			<stop stop-color="#F8E6E2"/>
			<stop offset="1.000000" stop-color="#B0776B"/>
		</linearGradient>
	</defs>
	<mask id="mask_0_1028" fill="white">
		<path id="Combined Shape" d="M42.4125 0C50.7869 0 57.6 6.81299 57.6 15.1875C57.6 20.8584 54.475 25.813 49.8571 28.4209C51.6534 33.6221 50.7492 39.8682 46.8011 44.5771C44.9867 46.7412 43.9875 49.4883 43.9875 52.3125L43.9875 54L33.8625 54L33.8625 50.625L23.7375 50.625L23.7375 54L13.6125 54L13.6125 52.2544C13.6125 50.4756 12.7194 48.835 11.2232 47.8662C8.46979 46.084 6.27899 43.4976 4.96057 40.5L0 40.5L0 27L4.96991 27C5.18555 26.5264 5.43445 26.0454 5.72308 25.5435L2.83368 16.875L8.00232 16.875C9.94171 16.875 11.8531 17.3667 13.584 18.3042C15.7168 17.3555 17.9926 16.875 20.3625 16.875L27.3193 16.875C27.2578 16.3208 27.225 15.7578 27.225 15.1875C27.225 6.81299 34.0381 0 42.4125 0ZM30.6 15.1875C30.6 21.7007 35.8991 27 42.4125 27C48.9259 27 54.225 21.7007 54.225 15.1875C54.225 8.67432 48.9259 3.375 42.4125 3.375C35.8991 3.375 30.6 8.67432 30.6 15.1875ZM40.725 11.8125C40.725 12.7432 41.482 13.5 42.4125 13.5C45.204 13.5 47.475 15.771 47.475 18.5625C47.475 21.354 45.204 23.625 42.4125 23.625C40.3735 23.625 38.543 22.4116 37.7485 20.5337L40.857 19.2188C41.1218 19.8452 41.7324 20.25 42.4125 20.25C43.343 20.25 44.1 19.4932 44.1 18.5625C44.1 17.6318 43.343 16.875 42.4125 16.875C39.621 16.875 37.35 14.604 37.35 11.8125C37.35 9.021 39.621 6.75 42.4125 6.75C44.4515 6.75 46.282 7.96338 47.0765 9.84131L43.968 11.1562C43.7032 10.5298 43.0926 10.125 42.4125 10.125C41.482 10.125 40.725 10.8818 40.725 11.8125ZM44.2148 42.4087C42.2553 44.7461 41.0385 47.6143 40.7056 50.625L37.2375 50.625L37.2375 46.8804C37.2253 46.8818 33.9807 47.25 33.8625 47.25L20.3625 47.25L20.3625 50.625L16.8334 50.625C16.3969 48.3452 15.0533 46.3252 13.0573 45.0332C8.44043 42.0444 7.55322 37.6182 7.29608 37.125L3.375 37.125L3.375 30.375L7.29596 30.375L7.69501 29.2529C8.25073 27.6895 9.13837 26.4502 9.42096 25.9639L7.51636 20.25L8.00232 20.25C11.0665 20.25 12.9555 21.9385 13.4008 22.1631C13.9478 21.9458 16.3772 20.25 20.3625 20.25L28.0938 20.25C30.1833 26.1426 35.8124 30.375 42.4125 30.375C43.9155 30.375 45.3679 30.1543 46.7399 29.7461C48.0788 33.8706 47.2856 38.7461 44.2148 42.4087ZM16.9875 27L13.6125 27L13.6125 30.375L16.9875 30.375L16.9875 27Z" clip-rule="evenodd" fill="" fill-opacity="1.000000" fill-rule="evenodd"/>
	</mask>
	<path id="Combined Shape" d="M42.4125 0C50.7869 0 57.6 6.81299 57.6 15.1875C57.6 20.8584 54.475 25.813 49.8571 28.4209C51.6534 33.6221 50.7492 39.8682 46.8011 44.5771C44.9867 46.7412 43.9875 49.4883 43.9875 52.3125L43.9875 54L33.8625 54L33.8625 50.625L23.7375 50.625L23.7375 54L13.6125 54L13.6125 52.2544C13.6125 50.4756 12.7194 48.835 11.2232 47.8662C8.46979 46.084 6.27899 43.4976 4.96057 40.5L0 40.5L0 27L4.96991 27C5.18555 26.5264 5.43445 26.0454 5.72308 25.5435L2.83368 16.875L8.00232 16.875C9.94171 16.875 11.8531 17.3667 13.584 18.3042C15.7168 17.3555 17.9926 16.875 20.3625 16.875L27.3193 16.875C27.2578 16.3208 27.225 15.7578 27.225 15.1875C27.225 6.81299 34.0381 0 42.4125 0ZM30.6 15.1875C30.6 21.7007 35.8991 27 42.4125 27C48.9259 27 54.225 21.7007 54.225 15.1875C54.225 8.67432 48.9259 3.375 42.4125 3.375C35.8991 3.375 30.6 8.67432 30.6 15.1875ZM40.725 11.8125C40.725 12.7432 41.482 13.5 42.4125 13.5C45.204 13.5 47.475 15.771 47.475 18.5625C47.475 21.354 45.204 23.625 42.4125 23.625C40.3735 23.625 38.543 22.4116 37.7485 20.5337L40.857 19.2188C41.1218 19.8452 41.7324 20.25 42.4125 20.25C43.343 20.25 44.1 19.4932 44.1 18.5625C44.1 17.6318 43.343 16.875 42.4125 16.875C39.621 16.875 37.35 14.604 37.35 11.8125C37.35 9.021 39.621 6.75 42.4125 6.75C44.4515 6.75 46.282 7.96338 47.0765 9.84131L43.968 11.1562C43.7032 10.5298 43.0926 10.125 42.4125 10.125C41.482 10.125 40.725 10.8818 40.725 11.8125ZM44.2148 42.4087C42.2553 44.7461 41.0385 47.6143 40.7056 50.625L37.2375 50.625L37.2375 46.8804C37.2253 46.8818 33.9807 47.25 33.8625 47.25L20.3625 47.25L20.3625 50.625L16.8334 50.625C16.3969 48.3452 15.0533 46.3252 13.0573 45.0332C8.44043 42.0444 7.55322 37.6182 7.29608 37.125L3.375 37.125L3.375 30.375L7.29596 30.375L7.69501 29.2529C8.25073 27.6895 9.13837 26.4502 9.42096 25.9639L7.51636 20.25L8.00232 20.25C11.0665 20.25 12.9555 21.9385 13.4008 22.1631C13.9478 21.9458 16.3772 20.25 20.3625 20.25L28.0938 20.25C30.1833 26.1426 35.8124 30.375 42.4125 30.375C43.9155 30.375 45.3679 30.1543 46.7399 29.7461C48.0788 33.8706 47.2856 38.7461 44.2148 42.4087ZM16.9875 27L13.6125 27L13.6125 30.375L16.9875 30.375L16.9875 27Z" clip-rule="evenodd" fill="url(#paint_linear_0_1028_0)" fill-opacity="1.000000" fill-rule="evenodd" mask="url(#mask_0_1028)"/>
	<path id="Combined Shape" d="" fill="#979797" fill-opacity="0.000000" fill-rule="nonzero"/>
</svg>
